<mxfile host="app.diagrams.net" modified="2024-05-24T23:06:53.903Z" agent="Mozilla/5.0 (Windows NT 10.0; Win64; x64; rv:126.0) Gecko/20100101 Firefox/126.0" etag="lBDcI1vzPugIbKUnnKkU" version="24.4.8" type="github">
  <diagram id="R2lEEEUBdFMjLlhIrx00" name="Page-1">
    <mxGraphModel dx="1674" dy="1882" grid="1" gridSize="10" guides="1" tooltips="1" connect="1" arrows="1" fold="1" page="1" pageScale="1" pageWidth="850" pageHeight="1100" math="0" shadow="0" extFonts="Permanent Marker^https://fonts.googleapis.com/css?family=Permanent+Marker">
      <root>
        <mxCell id="0" />
        <mxCell id="1" parent="0" />
        <mxCell id="GcDPoTNNET3Vwg0IlSCf-1" value="Posto" style="rounded=1;whiteSpace=wrap;html=1;" parent="1" vertex="1">
          <mxGeometry x="180" y="220" width="120" height="60" as="geometry" />
        </mxCell>
        <mxCell id="GcDPoTNNET3Vwg0IlSCf-3" value="Combustíveis" style="rounded=1;whiteSpace=wrap;html=1;" parent="1" vertex="1">
          <mxGeometry x="180" y="520" width="120" height="60" as="geometry" />
        </mxCell>
        <mxCell id="GcDPoTNNET3Vwg0IlSCf-38" style="edgeStyle=orthogonalEdgeStyle;rounded=0;orthogonalLoop=1;jettySize=auto;html=1;entryX=0;entryY=0.5;entryDx=0;entryDy=0;exitX=0.5;exitY=0;exitDx=0;exitDy=0;" parent="1" source="RAU7dG7HIQkpDnTx74YW-15" target="GcDPoTNNET3Vwg0IlSCf-3" edge="1">
          <mxGeometry relative="1" as="geometry">
            <mxPoint x="130" y="670" as="sourcePoint" />
          </mxGeometry>
        </mxCell>
        <mxCell id="GcDPoTNNET3Vwg0IlSCf-39" style="edgeStyle=orthogonalEdgeStyle;rounded=0;orthogonalLoop=1;jettySize=auto;html=1;entryX=0.5;entryY=1;entryDx=0;entryDy=0;" parent="1" source="GcDPoTNNET3Vwg0IlSCf-7" target="GcDPoTNNET3Vwg0IlSCf-3" edge="1">
          <mxGeometry relative="1" as="geometry">
            <Array as="points">
              <mxPoint x="240" y="680" />
            </Array>
          </mxGeometry>
        </mxCell>
        <mxCell id="GcDPoTNNET3Vwg0IlSCf-7" value="tipo_combustivel" style="ellipse;whiteSpace=wrap;html=1;align=center;" parent="1" vertex="1">
          <mxGeometry x="190" y="670" width="100" height="40" as="geometry" />
        </mxCell>
        <mxCell id="GcDPoTNNET3Vwg0IlSCf-25" value="" style="edgeStyle=orthogonalEdgeStyle;rounded=0;orthogonalLoop=1;jettySize=auto;html=1;" parent="1" source="GcDPoTNNET3Vwg0IlSCf-9" target="GcDPoTNNET3Vwg0IlSCf-1" edge="1">
          <mxGeometry relative="1" as="geometry" />
        </mxCell>
        <mxCell id="GcDPoTNNET3Vwg0IlSCf-9" value="endereço" style="ellipse;whiteSpace=wrap;html=1;align=center;" parent="1" vertex="1">
          <mxGeometry x="190" y="100" width="100" height="40" as="geometry" />
        </mxCell>
        <mxCell id="GcDPoTNNET3Vwg0IlSCf-28" value="" style="edgeStyle=orthogonalEdgeStyle;rounded=0;orthogonalLoop=1;jettySize=auto;html=1;" parent="1" source="GcDPoTNNET3Vwg0IlSCf-10" target="GcDPoTNNET3Vwg0IlSCf-9" edge="1">
          <mxGeometry relative="1" as="geometry" />
        </mxCell>
        <mxCell id="GcDPoTNNET3Vwg0IlSCf-10" value="cidade" style="ellipse;whiteSpace=wrap;html=1;align=center;" parent="1" vertex="1">
          <mxGeometry x="190" y="20" width="100" height="40" as="geometry" />
        </mxCell>
        <mxCell id="GcDPoTNNET3Vwg0IlSCf-29" style="edgeStyle=orthogonalEdgeStyle;rounded=0;orthogonalLoop=1;jettySize=auto;html=1;entryX=1;entryY=0;entryDx=0;entryDy=0;" parent="1" source="GcDPoTNNET3Vwg0IlSCf-11" target="GcDPoTNNET3Vwg0IlSCf-9" edge="1">
          <mxGeometry relative="1" as="geometry">
            <Array as="points">
              <mxPoint x="380" y="106" />
            </Array>
          </mxGeometry>
        </mxCell>
        <mxCell id="GcDPoTNNET3Vwg0IlSCf-11" value="estado" style="ellipse;whiteSpace=wrap;html=1;align=center;" parent="1" vertex="1">
          <mxGeometry x="320" y="20" width="100" height="40" as="geometry" />
        </mxCell>
        <mxCell id="GcDPoTNNET3Vwg0IlSCf-12" value="bairro" style="ellipse;whiteSpace=wrap;html=1;align=center;" parent="1" vertex="1">
          <mxGeometry x="70" y="20" width="100" height="40" as="geometry" />
        </mxCell>
        <mxCell id="GcDPoTNNET3Vwg0IlSCf-31" style="edgeStyle=orthogonalEdgeStyle;rounded=0;orthogonalLoop=1;jettySize=auto;html=1;entryX=0;entryY=0.25;entryDx=0;entryDy=0;" parent="1" source="GcDPoTNNET3Vwg0IlSCf-13" target="GcDPoTNNET3Vwg0IlSCf-1" edge="1">
          <mxGeometry relative="1" as="geometry">
            <Array as="points">
              <mxPoint x="50" y="235" />
            </Array>
          </mxGeometry>
        </mxCell>
        <mxCell id="GcDPoTNNET3Vwg0IlSCf-13" value="nome" style="ellipse;whiteSpace=wrap;html=1;align=center;" parent="1" vertex="1">
          <mxGeometry y="160" width="100" height="40" as="geometry" />
        </mxCell>
        <mxCell id="GcDPoTNNET3Vwg0IlSCf-35" style="edgeStyle=orthogonalEdgeStyle;rounded=0;orthogonalLoop=1;jettySize=auto;html=1;entryX=0.75;entryY=0;entryDx=0;entryDy=0;" parent="1" edge="1">
          <mxGeometry relative="1" as="geometry">
            <Array as="points">
              <mxPoint x="880" y="190" />
              <mxPoint x="770" y="190" />
            </Array>
            <mxPoint x="880" y="170" as="sourcePoint" />
            <mxPoint x="770" y="220" as="targetPoint" />
          </mxGeometry>
        </mxCell>
        <mxCell id="GcDPoTNNET3Vwg0IlSCf-17" value="data_registro" style="ellipse;whiteSpace=wrap;html=1;align=center;" parent="1" vertex="1">
          <mxGeometry x="700" y="70" width="100" height="40" as="geometry" />
        </mxCell>
        <mxCell id="GcDPoTNNET3Vwg0IlSCf-18" value="preco" style="ellipse;whiteSpace=wrap;html=1;align=center;" parent="1" vertex="1">
          <mxGeometry x="580" y="120" width="100" height="40" as="geometry" />
        </mxCell>
        <mxCell id="GcDPoTNNET3Vwg0IlSCf-19" value="Disponibiliza" style="shape=rhombus;perimeter=rhombusPerimeter;whiteSpace=wrap;html=1;align=center;" parent="1" vertex="1">
          <mxGeometry x="175" y="370" width="130" height="70" as="geometry" />
        </mxCell>
        <mxCell id="GcDPoTNNET3Vwg0IlSCf-20" value="Visita posto" style="shape=rhombus;perimeter=rhombusPerimeter;whiteSpace=wrap;html=1;align=center;" parent="1" vertex="1">
          <mxGeometry x="410" y="210" width="155" height="80" as="geometry" />
        </mxCell>
        <mxCell id="GcDPoTNNET3Vwg0IlSCf-27" style="edgeStyle=orthogonalEdgeStyle;rounded=0;orthogonalLoop=1;jettySize=auto;html=1;entryX=0;entryY=0;entryDx=0;entryDy=0;" parent="1" source="GcDPoTNNET3Vwg0IlSCf-12" target="GcDPoTNNET3Vwg0IlSCf-9" edge="1">
          <mxGeometry relative="1" as="geometry">
            <Array as="points">
              <mxPoint x="120" y="106" />
            </Array>
          </mxGeometry>
        </mxCell>
        <mxCell id="GcDPoTNNET3Vwg0IlSCf-34" style="edgeStyle=orthogonalEdgeStyle;rounded=0;orthogonalLoop=1;jettySize=auto;html=1;entryX=0.35;entryY=0.033;entryDx=0;entryDy=0;entryPerimeter=0;" parent="1" source="GcDPoTNNET3Vwg0IlSCf-18" edge="1">
          <mxGeometry relative="1" as="geometry">
            <mxPoint x="722" y="221.98000000000002" as="targetPoint" />
            <Array as="points">
              <mxPoint x="630" y="190" />
              <mxPoint x="723" y="190" />
            </Array>
          </mxGeometry>
        </mxCell>
        <mxCell id="GcDPoTNNET3Vwg0IlSCf-37" style="edgeStyle=orthogonalEdgeStyle;rounded=0;orthogonalLoop=1;jettySize=auto;html=1;entryX=0.583;entryY=-0.033;entryDx=0;entryDy=0;entryPerimeter=0;" parent="1" source="GcDPoTNNET3Vwg0IlSCf-17" edge="1">
          <mxGeometry relative="1" as="geometry">
            <mxPoint x="749.96" y="218.01999999999998" as="targetPoint" />
          </mxGeometry>
        </mxCell>
        <mxCell id="RAU7dG7HIQkpDnTx74YW-1" value="" style="endArrow=none;html=1;rounded=0;entryX=0;entryY=0.5;entryDx=0;entryDy=0;exitX=1;exitY=0.5;exitDx=0;exitDy=0;" parent="1" source="GcDPoTNNET3Vwg0IlSCf-20" edge="1">
          <mxGeometry relative="1" as="geometry">
            <mxPoint x="550" y="250" as="sourcePoint" />
            <mxPoint x="680" y="250" as="targetPoint" />
          </mxGeometry>
        </mxCell>
        <mxCell id="RAU7dG7HIQkpDnTx74YW-2" value="(1,n)" style="resizable=0;html=1;whiteSpace=wrap;align=left;verticalAlign=bottom;" parent="RAU7dG7HIQkpDnTx74YW-1" connectable="0" vertex="1">
          <mxGeometry x="-1" relative="1" as="geometry">
            <mxPoint x="45" as="offset" />
          </mxGeometry>
        </mxCell>
        <mxCell id="RAU7dG7HIQkpDnTx74YW-7" value="" style="endArrow=none;html=1;rounded=0;entryX=0;entryY=0.5;entryDx=0;entryDy=0;exitX=1;exitY=0.5;exitDx=0;exitDy=0;" parent="1" edge="1">
          <mxGeometry relative="1" as="geometry">
            <mxPoint x="300" y="249.5" as="sourcePoint" />
            <mxPoint x="415" y="249.5" as="targetPoint" />
          </mxGeometry>
        </mxCell>
        <mxCell id="RAU7dG7HIQkpDnTx74YW-8" value="(1,n)" style="resizable=0;html=1;whiteSpace=wrap;align=left;verticalAlign=bottom;" parent="RAU7dG7HIQkpDnTx74YW-7" connectable="0" vertex="1">
          <mxGeometry x="-1" relative="1" as="geometry">
            <mxPoint x="45" as="offset" />
          </mxGeometry>
        </mxCell>
        <mxCell id="RAU7dG7HIQkpDnTx74YW-9" value="(1,n)" style="resizable=0;html=1;whiteSpace=wrap;align=left;verticalAlign=bottom;direction=south;" parent="1" connectable="0" vertex="1">
          <mxGeometry x="240" y="480" as="geometry" />
        </mxCell>
        <mxCell id="RAU7dG7HIQkpDnTx74YW-10" value="(1,n)" style="resizable=0;html=1;whiteSpace=wrap;align=left;verticalAlign=bottom;" parent="1" connectable="0" vertex="1">
          <mxGeometry x="240" y="320" as="geometry" />
        </mxCell>
        <mxCell id="RAU7dG7HIQkpDnTx74YW-11" value="idcoleta" style="ellipse;whiteSpace=wrap;html=1;align=center;fontStyle=4;" parent="1" vertex="1">
          <mxGeometry x="820" y="130" width="100" height="40" as="geometry" />
        </mxCell>
        <mxCell id="RAU7dG7HIQkpDnTx74YW-15" value="id_combustivel" style="ellipse;whiteSpace=wrap;html=1;align=center;fontStyle=4;" parent="1" vertex="1">
          <mxGeometry x="70" y="670" width="100" height="40" as="geometry" />
        </mxCell>
        <mxCell id="RAU7dG7HIQkpDnTx74YW-18" value="" style="endArrow=none;html=1;rounded=0;entryX=0.5;entryY=1;entryDx=0;entryDy=0;exitX=0.5;exitY=0;exitDx=0;exitDy=0;" parent="1" source="GcDPoTNNET3Vwg0IlSCf-19" target="GcDPoTNNET3Vwg0IlSCf-1" edge="1">
          <mxGeometry relative="1" as="geometry">
            <mxPoint x="205" y="330" as="sourcePoint" />
            <mxPoint x="320" y="330" as="targetPoint" />
          </mxGeometry>
        </mxCell>
        <mxCell id="RAU7dG7HIQkpDnTx74YW-20" value="" style="endArrow=none;html=1;rounded=0;exitX=0.5;exitY=0;exitDx=0;exitDy=0;" parent="1" edge="1">
          <mxGeometry relative="1" as="geometry">
            <mxPoint x="239" y="520" as="sourcePoint" />
            <mxPoint x="240" y="440" as="targetPoint" />
          </mxGeometry>
        </mxCell>
        <mxCell id="RAU7dG7HIQkpDnTx74YW-22" value="Registro" style="shape=ext;margin=3;double=1;whiteSpace=wrap;html=1;align=center;" parent="1" vertex="1">
          <mxGeometry x="680" y="220" width="130" height="60" as="geometry" />
        </mxCell>
        <mxCell id="RAU7dG7HIQkpDnTx74YW-24" style="edgeStyle=orthogonalEdgeStyle;rounded=0;orthogonalLoop=1;jettySize=auto;html=1;exitX=0.5;exitY=0;exitDx=0;exitDy=0;entryX=0;entryY=0.5;entryDx=0;entryDy=0;" parent="1" source="RAU7dG7HIQkpDnTx74YW-23" target="GcDPoTNNET3Vwg0IlSCf-1" edge="1">
          <mxGeometry relative="1" as="geometry" />
        </mxCell>
        <mxCell id="RAU7dG7HIQkpDnTx74YW-23" value="idposto" style="ellipse;whiteSpace=wrap;html=1;align=center;fontStyle=4;" parent="1" vertex="1">
          <mxGeometry y="280" width="100" height="40" as="geometry" />
        </mxCell>
        <mxCell id="VgzwnMCucRG94Vj5baIP-1" value="Verifica preços" style="rhombus;whiteSpace=wrap;html=1;" vertex="1" parent="1">
          <mxGeometry x="460" y="510" width="130" height="80" as="geometry" />
        </mxCell>
        <mxCell id="VgzwnMCucRG94Vj5baIP-2" value="" style="endArrow=none;html=1;rounded=0;entryX=0.5;entryY=1;entryDx=0;entryDy=0;exitX=1;exitY=0.5;exitDx=0;exitDy=0;" edge="1" parent="1" source="VgzwnMCucRG94Vj5baIP-1" target="RAU7dG7HIQkpDnTx74YW-22">
          <mxGeometry width="50" height="50" relative="1" as="geometry">
            <mxPoint x="730" y="520" as="sourcePoint" />
            <mxPoint x="780" y="470" as="targetPoint" />
            <Array as="points">
              <mxPoint x="750" y="550" />
            </Array>
          </mxGeometry>
        </mxCell>
        <mxCell id="VgzwnMCucRG94Vj5baIP-3" value="" style="endArrow=none;html=1;rounded=0;exitX=1;exitY=0.5;exitDx=0;exitDy=0;entryX=0;entryY=0.5;entryDx=0;entryDy=0;" edge="1" parent="1" source="GcDPoTNNET3Vwg0IlSCf-3" target="VgzwnMCucRG94Vj5baIP-1">
          <mxGeometry width="50" height="50" relative="1" as="geometry">
            <mxPoint x="350" y="590" as="sourcePoint" />
            <mxPoint x="400" y="540" as="targetPoint" />
          </mxGeometry>
        </mxCell>
        <mxCell id="VgzwnMCucRG94Vj5baIP-4" value="(1,n)" style="resizable=0;html=1;whiteSpace=wrap;align=left;verticalAlign=bottom;direction=south;" connectable="0" vertex="1" parent="1">
          <mxGeometry x="360" y="550" as="geometry" />
        </mxCell>
        <mxCell id="VgzwnMCucRG94Vj5baIP-5" value="(1,n)" style="resizable=0;html=1;whiteSpace=wrap;align=left;verticalAlign=bottom;direction=south;" connectable="0" vertex="1" parent="1">
          <mxGeometry x="660" y="550" as="geometry" />
        </mxCell>
        <mxCell id="VgzwnMCucRG94Vj5baIP-6" value="&lt;div&gt;&lt;font style=&quot;font-size: 24px;&quot;&gt;Modelo Conceitual - &lt;/font&gt;Implementação de banco de dados do valor de combustíveis&lt;/div&gt;" style="text;html=1;whiteSpace=wrap;overflow=hidden;rounded=0;" vertex="1" parent="1">
          <mxGeometry y="-120" width="180" height="120" as="geometry" />
        </mxCell>
      </root>
    </mxGraphModel>
  </diagram>
</mxfile>
